<svg width="189" height="35" viewBox="0 0 189 35" fill="none" xmlns="http://www.w3.org/2000/svg">
<mask id="path-1-outside-1_303_356" maskUnits="userSpaceOnUse" x="0" y="0" width="189" height="35" fill="black">
<rect fill="white" width="189" height="35"/>
<path fill-rule="evenodd" clip-rule="evenodd" d="M34.1649 19.6033C33.7221 20.031 33.5209 20.6472 33.6246 21.2516L34.2935 25.1189C34.5019 26.3228 33.5375 27.3005 32.4436 27.3005C32.1553 27.3005 31.8577 27.2323 31.5694 27.0822L28.0697 25.2562C27.7959 25.114 27.4963 25.0429 27.1956 25.0429C26.8959 25.0429 26.5962 25.114 26.3224 25.2562L22.8227 27.0822C22.5345 27.2323 22.2369 27.3005 21.9486 27.3005C20.8546 27.3005 19.8902 26.3228 20.0987 25.1189L20.7675 21.2516C20.8712 20.6472 20.67 20.031 20.2273 19.6033L17.3953 16.8648C16.2817 15.7874 16.8966 13.91 18.4354 13.6878L22.3489 13.1239C22.9607 13.036 23.4895 12.6548 23.7622 12.1047L25.5126 8.58701C25.8568 7.89472 26.5267 7.54908 27.1956 7.54908C27.8654 7.54908 28.5353 7.89472 28.8796 8.58701L30.6299 12.1047C30.9026 12.6548 31.4315 13.036 32.0433 13.1239L35.9567 13.6878C37.4956 13.91 38.1105 15.7874 36.9968 16.8648L34.1649 19.6033Z"/>
<path d="M49.7556 11.9129V8.27818C49.7556 4.26088 46.4975 1 42.4791 1V4.64018C44.4869 4.64018 46.1176 6.2698 46.1176 8.27818V11.9129C46.1176 14.0992 47.1016 16.0383 48.6281 17.3726C47.1016 18.7065 46.1176 20.6428 46.1176 22.8302V26.4682C46.1176 28.4776 44.4869 30.1067 42.4774 30.1067V33.7453C46.4937 33.7453 49.7556 30.4888 49.7556 26.4682V22.8302C49.7556 20.8207 51.3863 19.1916 53.3942 19.1916V15.5515C51.3831 15.5515 49.7556 13.9218 49.7556 11.9129Z"/>
<path d="M8.27873 11.9151V8.27655C8.27873 6.26708 9.90944 4.638 11.9189 4.638V1C7.90052 1 4.64018 4.25652 4.64018 8.27655L4.63855 11.9151C4.63855 13.9246 3.00947 15.5531 1 15.5531V19.1916L1.00164 19.1933C3.01111 19.1933 4.64018 20.8223 4.64018 22.8318V26.4665C4.64018 30.4833 7.8967 33.7453 11.9167 33.7453V30.1051C9.90726 30.1051 8.27873 28.476 8.27873 26.4665V22.8318C8.27873 20.645 7.29419 18.7065 5.76826 17.3726C7.29419 16.0383 8.27873 14.1008 8.27873 11.9151Z"/>
<path d="M87.6573 27.2573L87.6411 17.9967H79.2356V21.3847H83.1238L83.1076 25.644C82.9893 25.7838 82.8118 25.9182 82.5752 26.0473C82.3493 26.1656 82.0858 26.2732 81.7847 26.37C81.4835 26.4668 81.1608 26.5421 80.8167 26.5958C80.4725 26.6496 80.1229 26.6765 79.768 26.6765C79.1872 26.6657 78.6655 26.5743 78.203 26.4022C77.7513 26.2194 77.3534 25.9559 77.0092 25.6117C76.8048 25.4073 76.6166 25.1761 76.4445 24.918C76.2832 24.6491 76.138 24.3587 76.0089 24.0467C75.8045 23.509 75.6432 22.8905 75.5249 22.1914C75.4173 21.4923 75.3636 20.7179 75.3636 19.8682V16.6415C75.3636 15.9639 75.4012 15.3347 75.4765 14.7539C75.5625 14.1731 75.6808 13.646 75.8314 13.1728C76.025 12.5597 76.267 12.0273 76.5574 11.5756C76.8586 11.1238 77.192 10.7581 77.5577 10.4785C77.8374 10.2741 78.1385 10.1182 78.4612 10.0106C78.7839 9.90306 79.1173 9.84928 79.4615 9.84928C80.096 9.84928 80.6392 9.93533 81.0909 10.1074C81.5534 10.2688 81.9353 10.5161 82.2364 10.8496C82.5053 11.1507 82.715 11.5218 82.8656 11.9628C83.027 12.4038 83.1453 12.9093 83.2206 13.4793H87.6411C87.5228 12.35 87.2701 11.3336 86.8829 10.4301C86.5064 9.52661 85.9794 8.75759 85.3018 8.123C84.6242 7.49917 83.7906 7.02055 82.8011 6.68712C81.8223 6.3537 80.6715 6.18698 79.3485 6.18698C78.4881 6.18698 77.6706 6.3053 76.8962 6.54192C76.1218 6.77854 75.4066 7.1281 74.7505 7.5906C74.1912 7.99931 73.6749 8.48332 73.2017 9.04261C72.7392 9.6019 72.3305 10.2311 71.9755 10.9302C71.5991 11.7154 71.3087 12.592 71.1043 13.56C70.9 14.5172 70.7978 15.5552 70.7978 16.6737V19.8682C70.7978 21.0405 70.9 22.1269 71.1043 23.1271C71.3194 24.1274 71.6313 25.0255 72.0401 25.8214C72.395 26.5421 72.8252 27.182 73.3307 27.7413C73.847 28.3006 74.4171 28.7739 75.0409 29.1611C75.6755 29.5375 76.3692 29.8225 77.1221 30.0161C77.8858 30.2205 78.6978 30.3227 79.5583 30.3227C80.5478 30.3227 81.4728 30.2312 82.3332 30.0484C83.1937 29.8656 83.9735 29.6236 84.6726 29.3224C85.3609 29.032 85.9579 28.7039 86.4634 28.3383C86.9689 27.9726 87.3669 27.6122 87.6573 27.2573Z"/>
<path d="M92.707 12.5436V16.2059H97.6762V26.3538H92.707V30H106.937V26.3538H102.21V12.5436H92.707ZM97.3535 8.0746C97.3535 8.41878 97.4126 8.74145 97.531 9.04261C97.66 9.33301 97.8375 9.58039 98.0634 9.78475C98.2892 9.99986 98.5581 10.1666 98.87 10.2849C99.1927 10.4032 99.5476 10.4624 99.9348 10.4624C100.731 10.4624 101.36 10.2419 101.822 9.80088C102.296 9.34915 102.532 8.77372 102.532 8.0746C102.532 7.37548 102.296 6.80543 101.822 6.36445C101.36 5.91271 100.731 5.68685 99.9348 5.68685C99.5476 5.68685 99.1927 5.746 98.87 5.86431C98.5581 5.98263 98.2892 6.14396 98.0634 6.34832C97.8375 6.56343 97.66 6.82157 97.531 7.12273C97.4126 7.41313 97.3535 7.73042 97.3535 8.0746Z"/>
<path d="M119.585 8.2682H115.1V12.5436H111.115V15.8509H115.1V23.7886C115.1 24.9395 115.251 25.929 115.552 26.7572C115.853 27.5746 116.283 28.2468 116.843 28.7739C117.391 29.3116 118.053 29.7096 118.827 29.9677C119.612 30.2151 120.484 30.3388 121.441 30.3388C121.936 30.3388 122.436 30.3119 122.941 30.2581C123.457 30.2151 123.952 30.1506 124.425 30.0645C124.899 29.9785 125.345 29.8709 125.765 29.7419C126.184 29.602 126.55 29.4407 126.862 29.2579L126.426 26.1764C126.222 26.2301 125.974 26.2839 125.684 26.3377C125.404 26.3915 125.103 26.4399 124.78 26.4829C124.447 26.5367 124.097 26.5797 123.732 26.612C123.377 26.6442 123.027 26.6604 122.683 26.6604C122.21 26.6604 121.78 26.6066 121.392 26.499C121.016 26.3915 120.693 26.2086 120.424 25.9505C120.155 25.7031 119.946 25.3697 119.795 24.9502C119.655 24.52 119.585 23.9876 119.585 23.353V15.8509H126.103V12.5436H119.585V8.2682Z"/>
<path d="M145.948 20.2715V16.5931H135.88V10.2042H147.206V6.50965H131.331V30H135.88V20.2715H145.948Z"/>
<path d="M161.952 30H166.502V29.7257C166.276 29.2847 166.104 28.7577 165.985 28.1446C165.867 27.5316 165.808 26.7572 165.808 25.8214V18.3355C165.808 17.3245 165.62 16.4371 165.243 15.6735C164.867 14.8991 164.345 14.2591 163.678 13.7536C163.011 13.2481 162.221 12.8662 161.307 12.6081C160.403 12.35 159.424 12.2209 158.37 12.2209C157.198 12.2209 156.155 12.3715 155.24 12.6726C154.337 12.963 153.573 13.361 152.949 13.8665C152.315 14.372 151.831 14.9582 151.497 15.6251C151.175 16.2919 151.013 16.9964 151.013 17.7386H155.499C155.499 17.4266 155.542 17.1416 155.628 16.8835C155.724 16.6253 155.87 16.4049 156.063 16.222C156.278 16.0177 156.558 15.8617 156.902 15.7541C157.246 15.6358 157.655 15.5767 158.128 15.5767C158.666 15.5767 159.134 15.6466 159.532 15.7864C159.941 15.9155 160.279 16.1037 160.548 16.3511C160.806 16.5877 161 16.8727 161.129 17.2062C161.258 17.5288 161.323 17.8945 161.323 18.3032V19.3358H158.822C157.531 19.3358 156.386 19.4541 155.386 19.6907C154.396 19.9166 153.563 20.25 152.885 20.691C152.132 21.175 151.567 21.7934 151.191 22.5463C150.814 23.2885 150.626 24.1435 150.626 25.1116C150.626 25.8645 150.777 26.5636 151.078 27.2089C151.379 27.8435 151.799 28.392 152.336 28.8545C152.874 29.317 153.514 29.6773 154.256 29.9355C155.009 30.1936 155.832 30.3227 156.725 30.3227C157.273 30.3227 157.784 30.2689 158.257 30.1613C158.731 30.0645 159.166 29.9247 159.564 29.7419C159.951 29.5698 160.306 29.3654 160.629 29.1288C160.952 28.8922 161.237 28.6394 161.484 28.3705C161.538 28.6824 161.602 28.9782 161.678 29.2579C161.753 29.5375 161.844 29.7849 161.952 30ZM157.677 26.854C157.257 26.854 156.886 26.8056 156.563 26.7088C156.251 26.6012 155.988 26.4614 155.773 26.2893C155.558 26.1065 155.391 25.886 155.273 25.6278C155.165 25.3589 155.111 25.0685 155.111 24.7566C155.111 24.3587 155.187 23.993 155.337 23.6595C155.488 23.3154 155.719 23.0196 156.031 22.7722C156.343 22.5356 156.746 22.3527 157.241 22.2237C157.736 22.0838 158.333 22.0139 159.032 22.0139H161.323V25.0148C161.194 25.2406 161.016 25.4665 160.79 25.6924C160.564 25.9075 160.296 26.1011 159.984 26.2732C159.672 26.4453 159.322 26.5851 158.935 26.6926C158.548 26.8002 158.128 26.854 157.677 26.854Z"/>
<path d="M176.44 30H180.651L187.282 12.5436H182.603L178.779 24.8534L178.537 26.0796L178.295 24.8534L174.455 12.5436H169.777L176.44 30Z"/>
</mask>
<path fill-rule="evenodd" clip-rule="evenodd" d="M34.1649 19.6033C33.7221 20.031 33.5209 20.6472 33.6246 21.2516L34.2935 25.1189C34.5019 26.3228 33.5375 27.3005 32.4436 27.3005C32.1553 27.3005 31.8577 27.2323 31.5694 27.0822L28.0697 25.2562C27.7959 25.114 27.4963 25.0429 27.1956 25.0429C26.8959 25.0429 26.5962 25.114 26.3224 25.2562L22.8227 27.0822C22.5345 27.2323 22.2369 27.3005 21.9486 27.3005C20.8546 27.3005 19.8902 26.3228 20.0987 25.1189L20.7675 21.2516C20.8712 20.6472 20.67 20.031 20.2273 19.6033L17.3953 16.8648C16.2817 15.7874 16.8966 13.91 18.4354 13.6878L22.3489 13.1239C22.9607 13.036 23.4895 12.6548 23.7622 12.1047L25.5126 8.58701C25.8568 7.89472 26.5267 7.54908 27.1956 7.54908C27.8654 7.54908 28.5353 7.89472 28.8796 8.58701L30.6299 12.1047C30.9026 12.6548 31.4315 13.036 32.0433 13.1239L35.9567 13.6878C37.4956 13.91 38.1105 15.7874 36.9968 16.8648L34.1649 19.6033Z" fill="white"/>
<path d="M49.7556 11.9129V8.27818C49.7556 4.26088 46.4975 1 42.4791 1V4.64018C44.4869 4.64018 46.1176 6.2698 46.1176 8.27818V11.9129C46.1176 14.0992 47.1016 16.0383 48.6281 17.3726C47.1016 18.7065 46.1176 20.6428 46.1176 22.8302V26.4682C46.1176 28.4776 44.4869 30.1067 42.4774 30.1067V33.7453C46.4937 33.7453 49.7556 30.4888 49.7556 26.4682V22.8302C49.7556 20.8207 51.3863 19.1916 53.3942 19.1916V15.5515C51.3831 15.5515 49.7556 13.9218 49.7556 11.9129Z" fill="white"/>
<path d="M8.27873 11.9151V8.27655C8.27873 6.26708 9.90944 4.638 11.9189 4.638V1C7.90052 1 4.64018 4.25652 4.64018 8.27655L4.63855 11.9151C4.63855 13.9246 3.00947 15.5531 1 15.5531V19.1916L1.00164 19.1933C3.01111 19.1933 4.64018 20.8223 4.64018 22.8318V26.4665C4.64018 30.4833 7.8967 33.7453 11.9167 33.7453V30.1051C9.90726 30.1051 8.27873 28.476 8.27873 26.4665V22.8318C8.27873 20.645 7.29419 18.7065 5.76826 17.3726C7.29419 16.0383 8.27873 14.1008 8.27873 11.9151Z" fill="white"/>
<path d="M87.6573 27.2573L87.6411 17.9967H79.2356V21.3847H83.1238L83.1076 25.644C82.9893 25.7838 82.8118 25.9182 82.5752 26.0473C82.3493 26.1656 82.0858 26.2732 81.7847 26.37C81.4835 26.4668 81.1608 26.5421 80.8167 26.5958C80.4725 26.6496 80.1229 26.6765 79.768 26.6765C79.1872 26.6657 78.6655 26.5743 78.203 26.4022C77.7513 26.2194 77.3534 25.9559 77.0092 25.6117C76.8048 25.4073 76.6166 25.1761 76.4445 24.918C76.2832 24.6491 76.138 24.3587 76.0089 24.0467C75.8045 23.509 75.6432 22.8905 75.5249 22.1914C75.4173 21.4923 75.3636 20.7179 75.3636 19.8682V16.6415C75.3636 15.9639 75.4012 15.3347 75.4765 14.7539C75.5625 14.1731 75.6808 13.646 75.8314 13.1728C76.025 12.5597 76.267 12.0273 76.5574 11.5756C76.8586 11.1238 77.192 10.7581 77.5577 10.4785C77.8374 10.2741 78.1385 10.1182 78.4612 10.0106C78.7839 9.90306 79.1173 9.84928 79.4615 9.84928C80.096 9.84928 80.6392 9.93533 81.0909 10.1074C81.5534 10.2688 81.9353 10.5161 82.2364 10.8496C82.5053 11.1507 82.715 11.5218 82.8656 11.9628C83.027 12.4038 83.1453 12.9093 83.2206 13.4793H87.6411C87.5228 12.35 87.2701 11.3336 86.8829 10.4301C86.5064 9.52661 85.9794 8.75759 85.3018 8.123C84.6242 7.49917 83.7906 7.02055 82.8011 6.68712C81.8223 6.3537 80.6715 6.18698 79.3485 6.18698C78.4881 6.18698 77.6706 6.3053 76.8962 6.54192C76.1218 6.77854 75.4066 7.1281 74.7505 7.5906C74.1912 7.99931 73.6749 8.48332 73.2017 9.04261C72.7392 9.6019 72.3305 10.2311 71.9755 10.9302C71.5991 11.7154 71.3087 12.592 71.1043 13.56C70.9 14.5172 70.7978 15.5552 70.7978 16.6737V19.8682C70.7978 21.0405 70.9 22.1269 71.1043 23.1271C71.3194 24.1274 71.6313 25.0255 72.0401 25.8214C72.395 26.5421 72.8252 27.182 73.3307 27.7413C73.847 28.3006 74.4171 28.7739 75.0409 29.1611C75.6755 29.5375 76.3692 29.8225 77.1221 30.0161C77.8858 30.2205 78.6978 30.3227 79.5583 30.3227C80.5478 30.3227 81.4728 30.2312 82.3332 30.0484C83.1937 29.8656 83.9735 29.6236 84.6726 29.3224C85.3609 29.032 85.9579 28.7039 86.4634 28.3383C86.9689 27.9726 87.3669 27.6122 87.6573 27.2573Z" fill="white"/>
<path d="M92.707 12.5436V16.2059H97.6762V26.3538H92.707V30H106.937V26.3538H102.21V12.5436H92.707ZM97.3535 8.0746C97.3535 8.41878 97.4126 8.74145 97.531 9.04261C97.66 9.33301 97.8375 9.58039 98.0634 9.78475C98.2892 9.99986 98.5581 10.1666 98.87 10.2849C99.1927 10.4032 99.5476 10.4624 99.9348 10.4624C100.731 10.4624 101.36 10.2419 101.822 9.80088C102.296 9.34915 102.532 8.77372 102.532 8.0746C102.532 7.37548 102.296 6.80543 101.822 6.36445C101.36 5.91271 100.731 5.68685 99.9348 5.68685C99.5476 5.68685 99.1927 5.746 98.87 5.86431C98.5581 5.98263 98.2892 6.14396 98.0634 6.34832C97.8375 6.56343 97.66 6.82157 97.531 7.12273C97.4126 7.41313 97.3535 7.73042 97.3535 8.0746Z" fill="white"/>
<path d="M119.585 8.2682H115.1V12.5436H111.115V15.8509H115.1V23.7886C115.1 24.9395 115.251 25.929 115.552 26.7572C115.853 27.5746 116.283 28.2468 116.843 28.7739C117.391 29.3116 118.053 29.7096 118.827 29.9677C119.612 30.2151 120.484 30.3388 121.441 30.3388C121.936 30.3388 122.436 30.3119 122.941 30.2581C123.457 30.2151 123.952 30.1506 124.425 30.0645C124.899 29.9785 125.345 29.8709 125.765 29.7419C126.184 29.602 126.55 29.4407 126.862 29.2579L126.426 26.1764C126.222 26.2301 125.974 26.2839 125.684 26.3377C125.404 26.3915 125.103 26.4399 124.78 26.4829C124.447 26.5367 124.097 26.5797 123.732 26.612C123.377 26.6442 123.027 26.6604 122.683 26.6604C122.21 26.6604 121.78 26.6066 121.392 26.499C121.016 26.3915 120.693 26.2086 120.424 25.9505C120.155 25.7031 119.946 25.3697 119.795 24.9502C119.655 24.52 119.585 23.9876 119.585 23.353V15.8509H126.103V12.5436H119.585V8.2682Z" fill="white"/>
<path d="M145.948 20.2715V16.5931H135.88V10.2042H147.206V6.50965H131.331V30H135.88V20.2715H145.948Z" fill="white"/>
<path d="M161.952 30H166.502V29.7257C166.276 29.2847 166.104 28.7577 165.985 28.1446C165.867 27.5316 165.808 26.7572 165.808 25.8214V18.3355C165.808 17.3245 165.62 16.4371 165.243 15.6735C164.867 14.8991 164.345 14.2591 163.678 13.7536C163.011 13.2481 162.221 12.8662 161.307 12.6081C160.403 12.35 159.424 12.2209 158.37 12.2209C157.198 12.2209 156.155 12.3715 155.24 12.6726C154.337 12.963 153.573 13.361 152.949 13.8665C152.315 14.372 151.831 14.9582 151.497 15.6251C151.175 16.2919 151.013 16.9964 151.013 17.7386H155.499C155.499 17.4266 155.542 17.1416 155.628 16.8835C155.724 16.6253 155.87 16.4049 156.063 16.222C156.278 16.0177 156.558 15.8617 156.902 15.7541C157.246 15.6358 157.655 15.5767 158.128 15.5767C158.666 15.5767 159.134 15.6466 159.532 15.7864C159.941 15.9155 160.279 16.1037 160.548 16.3511C160.806 16.5877 161 16.8727 161.129 17.2062C161.258 17.5288 161.323 17.8945 161.323 18.3032V19.3358H158.822C157.531 19.3358 156.386 19.4541 155.386 19.6907C154.396 19.9166 153.563 20.25 152.885 20.691C152.132 21.175 151.567 21.7934 151.191 22.5463C150.814 23.2885 150.626 24.1435 150.626 25.1116C150.626 25.8645 150.777 26.5636 151.078 27.2089C151.379 27.8435 151.799 28.392 152.336 28.8545C152.874 29.317 153.514 29.6773 154.256 29.9355C155.009 30.1936 155.832 30.3227 156.725 30.3227C157.273 30.3227 157.784 30.2689 158.257 30.1613C158.731 30.0645 159.166 29.9247 159.564 29.7419C159.951 29.5698 160.306 29.3654 160.629 29.1288C160.952 28.8922 161.237 28.6394 161.484 28.3705C161.538 28.6824 161.602 28.9782 161.678 29.2579C161.753 29.5375 161.844 29.7849 161.952 30ZM157.677 26.854C157.257 26.854 156.886 26.8056 156.563 26.7088C156.251 26.6012 155.988 26.4614 155.773 26.2893C155.558 26.1065 155.391 25.886 155.273 25.6278C155.165 25.3589 155.111 25.0685 155.111 24.7566C155.111 24.3587 155.187 23.993 155.337 23.6595C155.488 23.3154 155.719 23.0196 156.031 22.7722C156.343 22.5356 156.746 22.3527 157.241 22.2237C157.736 22.0838 158.333 22.0139 159.032 22.0139H161.323V25.0148C161.194 25.2406 161.016 25.4665 160.79 25.6924C160.564 25.9075 160.296 26.1011 159.984 26.2732C159.672 26.4453 159.322 26.5851 158.935 26.6926C158.548 26.8002 158.128 26.854 157.677 26.854Z" fill="white"/>
<path d="M176.44 30H180.651L187.282 12.5436H182.603L178.779 24.8534L178.537 26.0796L178.295 24.8534L174.455 12.5436H169.777L176.44 30Z" fill="white"/>
<path fill-rule="evenodd" clip-rule="evenodd" d="M34.1649 19.6033C33.7221 20.031 33.5209 20.6472 33.6246 21.2516L34.2935 25.1189C34.5019 26.3228 33.5375 27.3005 32.4436 27.3005C32.1553 27.3005 31.8577 27.2323 31.5694 27.0822L28.0697 25.2562C27.7959 25.114 27.4963 25.0429 27.1956 25.0429C26.8959 25.0429 26.5962 25.114 26.3224 25.2562L22.8227 27.0822C22.5345 27.2323 22.2369 27.3005 21.9486 27.3005C20.8546 27.3005 19.8902 26.3228 20.0987 25.1189L20.7675 21.2516C20.8712 20.6472 20.67 20.031 20.2273 19.6033L17.3953 16.8648C16.2817 15.7874 16.8966 13.91 18.4354 13.6878L22.3489 13.1239C22.9607 13.036 23.4895 12.6548 23.7622 12.1047L25.5126 8.58701C25.8568 7.89472 26.5267 7.54908 27.1956 7.54908C27.8654 7.54908 28.5353 7.89472 28.8796 8.58701L30.6299 12.1047C30.9026 12.6548 31.4315 13.036 32.0433 13.1239L35.9567 13.6878C37.4956 13.91 38.1105 15.7874 36.9968 16.8648L34.1649 19.6033Z" stroke="black" stroke-width="2" mask="url(#path-1-outside-1_303_356)"/>
<path d="M49.7556 11.9129V8.27818C49.7556 4.26088 46.4975 1 42.4791 1V4.64018C44.4869 4.64018 46.1176 6.2698 46.1176 8.27818V11.9129C46.1176 14.0992 47.1016 16.0383 48.6281 17.3726C47.1016 18.7065 46.1176 20.6428 46.1176 22.8302V26.4682C46.1176 28.4776 44.4869 30.1067 42.4774 30.1067V33.7453C46.4937 33.7453 49.7556 30.4888 49.7556 26.4682V22.8302C49.7556 20.8207 51.3863 19.1916 53.3942 19.1916V15.5515C51.3831 15.5515 49.7556 13.9218 49.7556 11.9129Z" stroke="black" stroke-width="2" mask="url(#path-1-outside-1_303_356)"/>
<path d="M8.27873 11.9151V8.27655C8.27873 6.26708 9.90944 4.638 11.9189 4.638V1C7.90052 1 4.64018 4.25652 4.64018 8.27655L4.63855 11.9151C4.63855 13.9246 3.00947 15.5531 1 15.5531V19.1916L1.00164 19.1933C3.01111 19.1933 4.64018 20.8223 4.64018 22.8318V26.4665C4.64018 30.4833 7.8967 33.7453 11.9167 33.7453V30.1051C9.90726 30.1051 8.27873 28.476 8.27873 26.4665V22.8318C8.27873 20.645 7.29419 18.7065 5.76826 17.3726C7.29419 16.0383 8.27873 14.1008 8.27873 11.9151Z" stroke="black" stroke-width="2" mask="url(#path-1-outside-1_303_356)"/>
<path d="M87.6573 27.2573L87.6411 17.9967H79.2356V21.3847H83.1238L83.1076 25.644C82.9893 25.7838 82.8118 25.9182 82.5752 26.0473C82.3493 26.1656 82.0858 26.2732 81.7847 26.37C81.4835 26.4668 81.1608 26.5421 80.8167 26.5958C80.4725 26.6496 80.1229 26.6765 79.768 26.6765C79.1872 26.6657 78.6655 26.5743 78.203 26.4022C77.7513 26.2194 77.3534 25.9559 77.0092 25.6117C76.8048 25.4073 76.6166 25.1761 76.4445 24.918C76.2832 24.6491 76.138 24.3587 76.0089 24.0467C75.8045 23.509 75.6432 22.8905 75.5249 22.1914C75.4173 21.4923 75.3636 20.7179 75.3636 19.8682V16.6415C75.3636 15.9639 75.4012 15.3347 75.4765 14.7539C75.5625 14.1731 75.6808 13.646 75.8314 13.1728C76.025 12.5597 76.267 12.0273 76.5574 11.5756C76.8586 11.1238 77.192 10.7581 77.5577 10.4785C77.8374 10.2741 78.1385 10.1182 78.4612 10.0106C78.7839 9.90306 79.1173 9.84928 79.4615 9.84928C80.096 9.84928 80.6392 9.93533 81.0909 10.1074C81.5534 10.2688 81.9353 10.5161 82.2364 10.8496C82.5053 11.1507 82.715 11.5218 82.8656 11.9628C83.027 12.4038 83.1453 12.9093 83.2206 13.4793H87.6411C87.5228 12.35 87.2701 11.3336 86.8829 10.4301C86.5064 9.52661 85.9794 8.75759 85.3018 8.123C84.6242 7.49917 83.7906 7.02055 82.8011 6.68712C81.8223 6.3537 80.6715 6.18698 79.3485 6.18698C78.4881 6.18698 77.6706 6.3053 76.8962 6.54192C76.1218 6.77854 75.4066 7.1281 74.7505 7.5906C74.1912 7.99931 73.6749 8.48332 73.2017 9.04261C72.7392 9.6019 72.3305 10.2311 71.9755 10.9302C71.5991 11.7154 71.3087 12.592 71.1043 13.56C70.9 14.5172 70.7978 15.5552 70.7978 16.6737V19.8682C70.7978 21.0405 70.9 22.1269 71.1043 23.1271C71.3194 24.1274 71.6313 25.0255 72.0401 25.8214C72.395 26.5421 72.8252 27.182 73.3307 27.7413C73.847 28.3006 74.4171 28.7739 75.0409 29.1611C75.6755 29.5375 76.3692 29.8225 77.1221 30.0161C77.8858 30.2205 78.6978 30.3227 79.5583 30.3227C80.5478 30.3227 81.4728 30.2312 82.3332 30.0484C83.1937 29.8656 83.9735 29.6236 84.6726 29.3224C85.3609 29.032 85.9579 28.7039 86.4634 28.3383C86.9689 27.9726 87.3669 27.6122 87.6573 27.2573Z" stroke="black" stroke-width="2" mask="url(#path-1-outside-1_303_356)"/>
<path d="M92.707 12.5436V16.2059H97.6762V26.3538H92.707V30H106.937V26.3538H102.21V12.5436H92.707ZM97.3535 8.0746C97.3535 8.41878 97.4126 8.74145 97.531 9.04261C97.66 9.33301 97.8375 9.58039 98.0634 9.78475C98.2892 9.99986 98.5581 10.1666 98.87 10.2849C99.1927 10.4032 99.5476 10.4624 99.9348 10.4624C100.731 10.4624 101.36 10.2419 101.822 9.80088C102.296 9.34915 102.532 8.77372 102.532 8.0746C102.532 7.37548 102.296 6.80543 101.822 6.36445C101.36 5.91271 100.731 5.68685 99.9348 5.68685C99.5476 5.68685 99.1927 5.746 98.87 5.86431C98.5581 5.98263 98.2892 6.14396 98.0634 6.34832C97.8375 6.56343 97.66 6.82157 97.531 7.12273C97.4126 7.41313 97.3535 7.73042 97.3535 8.0746Z" stroke="black" stroke-width="2" mask="url(#path-1-outside-1_303_356)"/>
<path d="M119.585 8.2682H115.1V12.5436H111.115V15.8509H115.1V23.7886C115.1 24.9395 115.251 25.929 115.552 26.7572C115.853 27.5746 116.283 28.2468 116.843 28.7739C117.391 29.3116 118.053 29.7096 118.827 29.9677C119.612 30.2151 120.484 30.3388 121.441 30.3388C121.936 30.3388 122.436 30.3119 122.941 30.2581C123.457 30.2151 123.952 30.1506 124.425 30.0645C124.899 29.9785 125.345 29.8709 125.765 29.7419C126.184 29.602 126.55 29.4407 126.862 29.2579L126.426 26.1764C126.222 26.2301 125.974 26.2839 125.684 26.3377C125.404 26.3915 125.103 26.4399 124.78 26.4829C124.447 26.5367 124.097 26.5797 123.732 26.612C123.377 26.6442 123.027 26.6604 122.683 26.6604C122.21 26.6604 121.78 26.6066 121.392 26.499C121.016 26.3915 120.693 26.2086 120.424 25.9505C120.155 25.7031 119.946 25.3697 119.795 24.9502C119.655 24.52 119.585 23.9876 119.585 23.353V15.8509H126.103V12.5436H119.585V8.2682Z" stroke="black" stroke-width="2" mask="url(#path-1-outside-1_303_356)"/>
<path d="M145.948 20.2715V16.5931H135.88V10.2042H147.206V6.50965H131.331V30H135.88V20.2715H145.948Z" stroke="black" stroke-width="2" mask="url(#path-1-outside-1_303_356)"/>
<path d="M161.952 30H166.502V29.7257C166.276 29.2847 166.104 28.7577 165.985 28.1446C165.867 27.5316 165.808 26.7572 165.808 25.8214V18.3355C165.808 17.3245 165.62 16.4371 165.243 15.6735C164.867 14.8991 164.345 14.2591 163.678 13.7536C163.011 13.2481 162.221 12.8662 161.307 12.6081C160.403 12.35 159.424 12.2209 158.37 12.2209C157.198 12.2209 156.155 12.3715 155.24 12.6726C154.337 12.963 153.573 13.361 152.949 13.8665C152.315 14.372 151.831 14.9582 151.497 15.6251C151.175 16.2919 151.013 16.9964 151.013 17.7386H155.499C155.499 17.4266 155.542 17.1416 155.628 16.8835C155.724 16.6253 155.87 16.4049 156.063 16.222C156.278 16.0177 156.558 15.8617 156.902 15.7541C157.246 15.6358 157.655 15.5767 158.128 15.5767C158.666 15.5767 159.134 15.6466 159.532 15.7864C159.941 15.9155 160.279 16.1037 160.548 16.3511C160.806 16.5877 161 16.8727 161.129 17.2062C161.258 17.5288 161.323 17.8945 161.323 18.3032V19.3358H158.822C157.531 19.3358 156.386 19.4541 155.386 19.6907C154.396 19.9166 153.563 20.25 152.885 20.691C152.132 21.175 151.567 21.7934 151.191 22.5463C150.814 23.2885 150.626 24.1435 150.626 25.1116C150.626 25.8645 150.777 26.5636 151.078 27.2089C151.379 27.8435 151.799 28.392 152.336 28.8545C152.874 29.317 153.514 29.6773 154.256 29.9355C155.009 30.1936 155.832 30.3227 156.725 30.3227C157.273 30.3227 157.784 30.2689 158.257 30.1613C158.731 30.0645 159.166 29.9247 159.564 29.7419C159.951 29.5698 160.306 29.3654 160.629 29.1288C160.952 28.8922 161.237 28.6394 161.484 28.3705C161.538 28.6824 161.602 28.9782 161.678 29.2579C161.753 29.5375 161.844 29.7849 161.952 30ZM157.677 26.854C157.257 26.854 156.886 26.8056 156.563 26.7088C156.251 26.6012 155.988 26.4614 155.773 26.2893C155.558 26.1065 155.391 25.886 155.273 25.6278C155.165 25.3589 155.111 25.0685 155.111 24.7566C155.111 24.3587 155.187 23.993 155.337 23.6595C155.488 23.3154 155.719 23.0196 156.031 22.7722C156.343 22.5356 156.746 22.3527 157.241 22.2237C157.736 22.0838 158.333 22.0139 159.032 22.0139H161.323V25.0148C161.194 25.2406 161.016 25.4665 160.79 25.6924C160.564 25.9075 160.296 26.1011 159.984 26.2732C159.672 26.4453 159.322 26.5851 158.935 26.6926C158.548 26.8002 158.128 26.854 157.677 26.854Z" stroke="black" stroke-width="2" mask="url(#path-1-outside-1_303_356)"/>
<path d="M176.44 30H180.651L187.282 12.5436H182.603L178.779 24.8534L178.537 26.0796L178.295 24.8534L174.455 12.5436H169.777L176.44 30Z" stroke="black" stroke-width="2" mask="url(#path-1-outside-1_303_356)"/>
</svg>
